<svg width="65" height="65" viewBox="0 0 65 65" fill="none" xmlns="http://www.w3.org/2000/svg">
<path d="M21.7101 38.1911C20.2225 35.2866 18.4515 32.6655 16.5388 30.8237C18.3098 29.6902 20.0099 28.4151 21.7101 26.9983C25.2521 24.023 29.0775 20.4101 31.8403 16.7973C33.1154 15.0971 34.8156 12.5468 35.2406 10.3508C35.4532 9.28817 33.9655 9.07565 33.753 10.1383C33.3988 11.9093 31.6986 14.3887 30.5652 15.8763C27.8024 19.3475 24.1895 22.9604 20.7892 25.8648C19.089 27.3525 17.3888 28.6985 15.547 29.9736C14.8386 29.336 14.0593 28.8401 13.2093 28.4151C12.1467 27.7775 11.0132 27.4233 9.73808 27.4233V23.7396C9.73808 21.4727 9.73808 19.135 9.5964 16.9389C9.5964 15.8763 8.10875 15.8763 8.10875 16.9389C8.03791 19.135 8.03791 21.4727 8.03791 23.7396V27.7775C6.55026 28.2026 5.27513 29.1235 4.42504 30.3278C3.57496 31.3904 3.00823 32.7364 3.14991 34.1532C3.14991 35.4991 4 36.4909 5.34597 36.4909C6.19605 36.4909 7.25866 36.0659 8.10875 35.7117C8.25043 37.341 8.25043 38.0494 8.25043 39.2537C8.32127 40.1038 8.32127 40.5288 8.32127 41.0247C8.46295 41.5914 8.53379 42.2998 8.95883 42.5124C9.31304 42.654 9.73808 42.654 10.0214 42.229C10.234 41.8748 10.4465 41.4497 10.5882 41.0247C10.659 40.8122 10.3756 40.8122 10.234 40.9539C10.0214 41.1664 9.73808 41.3789 9.5964 41.4497C9.52556 40.9539 9.5964 39.7496 9.5964 39.2537V35.0741C10.8007 34.5782 11.9341 33.799 12.9967 33.1614C13.776 32.7364 14.4844 32.3113 15.122 31.8154C16.9638 33.5156 18.7348 36.3492 20.3641 39.0412C22.5602 43.0791 25.5355 46.2669 28.9358 48.6046C32.6904 51.1549 36.9408 52.7134 41.2621 53.3509C45.725 53.9885 50.188 53.776 54.7926 52.7134C58.0513 52.005 61.2391 50.8007 64.2144 49.313C61.0266 50.5882 57.7679 51.5799 54.5801 52.0758C50.1171 52.9259 45.6542 52.8551 41.4038 52.0758C37.1533 51.4382 32.6904 49.313 29.7859 47.1878C26.3856 44.7792 23.977 41.8748 21.7101 38.1911ZM6.12521 35.0033C5.13345 35.2158 4.63756 35.0033 4.49588 34.0115C4.49588 33.0906 4.92093 32.028 5.55849 31.2487C6.19605 30.3986 7.04614 29.7611 8.03791 29.336C8.03791 29.9027 8.03791 31.6029 8.10875 34.3657C7.47118 34.6491 6.76278 34.8616 6.12521 35.0033ZM12.3592 32.0988C11.5091 32.7364 10.5882 33.1614 9.73808 33.7281V29.0527C10.659 29.0527 11.6508 29.336 12.5009 29.7611C13.1384 30.1153 13.6343 30.5403 14.201 30.9654C13.5635 31.3904 12.9967 31.6738 12.3592 32.0988Z" fill="#63192D"/>
</svg>
