<svg width="637" height="499" viewBox="0 0 637 499" fill="none" xmlns="http://www.w3.org/2000/svg">
<g opacity="0.4">
<path d="M370.021 280.863C362.293 280.863 355.97 274.544 355.97 266.82V14.0428C355.97 6.31926 362.293 0 370.021 0H622.939C630.667 0 636.99 6.31926 636.99 14.0428V266.82C636.99 274.544 633.759 286.29 629.817 292.933L514.058 487.552C510.109 494.187 500.562 499.334 492.841 498.975L425.08 495.879C417.359 495.521 412.483 489.082 414.239 481.562L457.959 294.519C459.715 287 454.833 280.849 447.105 280.849L370.021 280.863Z" fill="#821331"/>
<path d="M14.051 280.863C6.32296 280.863 0 274.544 0 266.82V14.0428C0 6.31925 6.32296 0 14.051 0H266.97C274.698 0 281.021 6.31925 281.021 14.0428V266.82C281.021 274.544 277.789 286.29 273.84 292.94L158.095 487.552C154.147 494.194 144.599 499.34 136.878 498.982L69.117 495.886C61.396 495.528 56.5203 489.089 58.2766 481.569L101.996 294.519C103.753 286.999 98.8701 280.849 91.142 280.849L14.051 280.863Z" fill="#821331"/>
</g>
</svg>
